<svg width="76" height="89" viewBox="0 0 76 89" fill="none" xmlns="http://www.w3.org/2000/svg">
<rect width="75.7288" height="89" rx="14" fill="#484848"/>
<rect width="75.7288" height="89" rx="14" fill="url(#paint0_linear_410_57)"/>
<path d="M6.96 44.344C7.03467 43.3627 7.41333 42.5947 8.096 42.04C8.77867 41.4853 9.664 41.208 10.752 41.208C11.4773 41.208 12.1013 41.3413 12.624 41.608C13.1573 41.864 13.5573 42.216 13.824 42.664C14.1013 43.112 14.24 43.6187 14.24 44.184C14.24 44.8453 14.048 45.416 13.664 45.896C13.2907 46.376 12.8 46.6853 12.192 46.824V46.904C12.8853 47.0747 13.4347 47.4107 13.84 47.912C14.2453 48.4133 14.448 49.0693 14.448 49.88C14.448 50.488 14.3093 51.0373 14.032 51.528C13.7547 52.008 13.3387 52.3867 12.784 52.664C12.2293 52.9413 11.5627 53.08 10.784 53.08C9.65333 53.08 8.72533 52.7867 8 52.2C7.27467 51.6027 6.86933 50.76 6.784 49.672H8.192C8.26667 50.312 8.528 50.8347 8.976 51.24C9.424 51.6453 10.0213 51.848 10.768 51.848C11.5147 51.848 12.08 51.656 12.464 51.272C12.8587 50.8773 13.056 50.3707 13.056 49.752C13.056 48.952 12.7893 48.376 12.256 48.024C11.7227 47.672 10.9173 47.496 9.84 47.496H9.472V46.28H9.856C10.8373 46.2693 11.5787 46.1093 12.08 45.8C12.5813 45.48 12.832 44.9893 12.832 44.328C12.832 43.7627 12.6453 43.3093 12.272 42.968C11.9093 42.6267 11.3867 42.456 10.704 42.456C10.0427 42.456 9.50933 42.6267 9.104 42.968C8.69867 43.3093 8.45867 43.768 8.384 44.344H6.96ZM16.4139 47.096C16.4139 45.2613 16.7125 43.832 17.3099 42.808C17.9072 41.7733 18.9525 41.256 20.4459 41.256C21.9285 41.256 22.9685 41.7733 23.5659 42.808C24.1632 43.832 24.4619 45.2613 24.4619 47.096C24.4619 48.9627 24.1632 50.4133 23.5659 51.448C22.9685 52.4827 21.9285 53 20.4459 53C18.9525 53 17.9072 52.4827 17.3099 51.448C16.7125 50.4133 16.4139 48.9627 16.4139 47.096ZM23.0219 47.096C23.0219 46.168 22.9579 45.384 22.8299 44.744C22.7125 44.0933 22.4619 43.5707 22.0779 43.176C21.7045 42.7813 21.1605 42.584 20.4459 42.584C19.7205 42.584 19.1659 42.7813 18.7819 43.176C18.4085 43.5707 18.1579 44.0933 18.0299 44.744C17.9125 45.384 17.8539 46.168 17.8539 47.096C17.8539 48.056 17.9125 48.8613 18.0299 49.512C18.1579 50.1627 18.4085 50.6853 18.7819 51.08C19.1659 51.4747 19.7205 51.672 20.4459 51.672C21.1605 51.672 21.7045 51.4747 22.0779 51.08C22.4619 50.6853 22.7125 50.1627 22.8299 49.512C22.9579 48.8613 23.0219 48.056 23.0219 47.096ZM26.4608 47.096C26.4608 45.2613 26.7594 43.832 27.3568 42.808C27.9541 41.7733 28.9994 41.256 30.4928 41.256C31.9754 41.256 33.0154 41.7733 33.6128 42.808C34.2101 43.832 34.5087 45.2613 34.5087 47.096C34.5087 48.9627 34.2101 50.4133 33.6128 51.448C33.0154 52.4827 31.9754 53 30.4928 53C28.9994 53 27.9541 52.4827 27.3568 51.448C26.7594 50.4133 26.4608 48.9627 26.4608 47.096ZM33.0688 47.096C33.0688 46.168 33.0048 45.384 32.8768 44.744C32.7594 44.0933 32.5088 43.5707 32.1248 43.176C31.7514 42.7813 31.2074 42.584 30.4928 42.584C29.7674 42.584 29.2128 42.7813 28.8288 43.176C28.4554 43.5707 28.2048 44.0933 28.0768 44.744C27.9594 45.384 27.9008 46.168 27.9008 47.096C27.9008 48.056 27.9594 48.8613 28.0768 49.512C28.2048 50.1627 28.4554 50.6853 28.8288 51.08C29.2128 51.4747 29.7674 51.672 30.4928 51.672C31.2074 51.672 31.7514 51.4747 32.1248 51.08C32.5088 50.6853 32.7594 50.1627 32.8768 49.512C33.0048 48.8613 33.0688 48.056 33.0688 47.096ZM45.0676 47.768H41.6596V51.224H40.2996V47.768H36.9076V46.536H40.2996V43.064H41.6596V46.536H45.0676V47.768ZM14.976 60.192C14.976 60.7573 14.8427 61.2907 14.576 61.792C14.3093 62.2933 13.8827 62.704 13.296 63.024C12.7093 63.3333 11.9573 63.488 11.04 63.488H9.024V68H7.2V56.88H11.04C11.8933 56.88 12.6133 57.0293 13.2 57.328C13.7973 57.616 14.24 58.0107 14.528 58.512C14.8267 59.0133 14.976 59.5733 14.976 60.192ZM11.04 62C11.7333 62 12.2507 61.8453 12.592 61.536C12.9333 61.216 13.104 60.768 13.104 60.192C13.104 58.976 12.416 58.368 11.04 58.368H9.024V62H11.04ZM18.5396 60.464C18.8063 60.016 19.1583 59.6693 19.5956 59.424C20.0436 59.168 20.5716 59.04 21.1796 59.04V60.928H20.7156C20.001 60.928 19.457 61.1093 19.0836 61.472C18.721 61.8347 18.5396 62.464 18.5396 63.36V68H16.7156V59.184H18.5396V60.464ZM26.6803 68.144C25.8483 68.144 25.0963 67.9573 24.4243 67.584C23.7523 67.2 23.2243 66.6667 22.8403 65.984C22.4563 65.2907 22.2643 64.4907 22.2643 63.584C22.2643 62.688 22.4616 61.8933 22.8563 61.2C23.2509 60.5067 23.7896 59.9733 24.4723 59.6C25.1549 59.2267 25.9176 59.04 26.7603 59.04C27.6029 59.04 28.3656 59.2267 29.0483 59.6C29.7309 59.9733 30.2696 60.5067 30.6643 61.2C31.0589 61.8933 31.2563 62.688 31.2563 63.584C31.2563 64.48 31.0536 65.2747 30.6483 65.968C30.2429 66.6613 29.6883 67.2 28.9843 67.584C28.2909 67.9573 27.5229 68.144 26.6803 68.144ZM26.6803 66.56C27.1496 66.56 27.5869 66.448 27.9923 66.224C28.4083 66 28.7443 65.664 29.0003 65.216C29.2563 64.768 29.3843 64.224 29.3843 63.584C29.3843 62.944 29.2616 62.4053 29.0163 61.968C28.7709 61.52 28.4456 61.184 28.0403 60.96C27.6349 60.736 27.1976 60.624 26.7283 60.624C26.2589 60.624 25.8216 60.736 25.4163 60.96C25.0216 61.184 24.7069 61.52 24.4723 61.968C24.2376 62.4053 24.1203 62.944 24.1203 63.584C24.1203 64.5333 24.3603 65.2693 24.8403 65.792C25.3309 66.304 25.9443 66.56 26.6803 66.56ZM33.9874 58.016C33.6567 58.016 33.3794 57.904 33.1554 57.68C32.9314 57.456 32.8194 57.1787 32.8194 56.848C32.8194 56.5173 32.9314 56.24 33.1554 56.016C33.3794 55.792 33.6567 55.68 33.9874 55.68C34.3074 55.68 34.5794 55.792 34.8034 56.016C35.0274 56.24 35.1394 56.5173 35.1394 56.848C35.1394 57.1787 35.0274 57.456 34.8034 57.68C34.5794 57.904 34.3074 58.016 33.9874 58.016ZM34.8834 69.728C34.8834 70.592 34.6647 71.216 34.2274 71.6C33.8007 71.9947 33.1767 72.192 32.3554 72.192H31.4114V70.656H32.0354C32.4087 70.656 32.67 70.5813 32.8194 70.432C32.9794 70.2933 33.0594 70.0587 33.0594 69.728V59.184H34.8834V69.728ZM45.3581 63.376C45.3581 63.7067 45.3368 64.0053 45.2941 64.272H38.5581C38.6115 64.976 38.8728 65.5413 39.3421 65.968C39.8115 66.3947 40.3875 66.608 41.0701 66.608C42.0515 66.608 42.7448 66.1973 43.1501 65.376H45.1181C44.8515 66.1867 44.3661 66.8533 43.6621 67.376C42.9688 67.888 42.1048 68.144 41.0701 68.144C40.2275 68.144 39.4701 67.9573 38.7981 67.584C38.1368 67.2 37.6141 66.6667 37.2301 65.984C36.8568 65.2907 36.6701 64.4907 36.6701 63.584C36.6701 62.6773 36.8515 61.8827 37.2141 61.2C37.5875 60.5067 38.1048 59.9733 38.7661 59.6C39.4381 59.2267 40.2061 59.04 41.0701 59.04C41.9021 59.04 42.6435 59.2213 43.2941 59.584C43.9448 59.9467 44.4515 60.4587 44.8141 61.12C45.1768 61.7707 45.3581 62.5227 45.3581 63.376ZM43.4541 62.8C43.4435 62.128 43.2035 61.5893 42.7341 61.184C42.2648 60.7787 41.6835 60.576 40.9901 60.576C40.3608 60.576 39.8221 60.7787 39.3741 61.184C38.9261 61.5787 38.6595 62.1173 38.5741 62.8H43.4541ZM46.5451 63.584C46.5451 62.6773 46.7265 61.8827 47.0891 61.2C47.4625 60.5067 47.9745 59.9733 48.6251 59.6C49.2758 59.2267 50.0225 59.04 50.8651 59.04C51.9318 59.04 52.8118 59.296 53.5051 59.808C54.2091 60.3093 54.6838 61.0293 54.9291 61.968H52.9611C52.8011 61.5307 52.5451 61.1893 52.1931 60.944C51.8411 60.6987 51.3985 60.576 50.8651 60.576C50.1185 60.576 49.5211 60.8427 49.0731 61.376C48.6358 61.8987 48.4171 62.6347 48.4171 63.584C48.4171 64.5333 48.6358 65.2747 49.0731 65.808C49.5211 66.3413 50.1185 66.608 50.8651 66.608C51.9211 66.608 52.6198 66.144 52.9611 65.216H54.9291C54.6731 66.112 54.1931 66.8267 53.4891 67.36C52.7851 67.8827 51.9105 68.144 50.8651 68.144C50.0225 68.144 49.2758 67.9573 48.6251 67.584C47.9745 67.2 47.4625 66.6667 47.0891 65.984C46.7265 65.2907 46.5451 64.4907 46.5451 63.584ZM58.8749 60.672V65.552C58.8749 65.8827 58.9495 66.1227 59.0989 66.272C59.2589 66.4107 59.5255 66.48 59.8989 66.48H61.0189V68H59.5789C58.7575 68 58.1282 67.808 57.6909 67.424C57.2535 67.04 57.0349 66.416 57.0349 65.552V60.672H55.9949V59.184H57.0349V56.992H58.8749V59.184H61.0189V60.672H58.8749ZM65.9 68.144C65.2067 68.144 64.5827 68.0213 64.028 67.776C63.484 67.52 63.052 67.1787 62.732 66.752C62.412 66.3147 62.2413 65.8293 62.22 65.296H64.108C64.14 65.6693 64.316 65.984 64.636 66.24C64.9667 66.4853 65.3773 66.608 65.868 66.608C66.38 66.608 66.7747 66.512 67.052 66.32C67.34 66.1173 67.484 65.8613 67.484 65.552C67.484 65.2213 67.324 64.976 67.004 64.816C66.6947 64.656 66.1987 64.48 65.516 64.288C64.8547 64.1067 64.316 63.9307 63.9 63.76C63.484 63.5893 63.1213 63.328 62.812 62.976C62.5133 62.624 62.364 62.16 62.364 61.584C62.364 61.1147 62.5027 60.688 62.78 60.304C63.0573 59.9093 63.452 59.6 63.964 59.376C64.4867 59.152 65.084 59.04 65.756 59.04C66.7587 59.04 67.564 59.296 68.172 59.808C68.7907 60.3093 69.1213 60.9973 69.164 61.872H67.34C67.308 61.4773 67.148 61.1627 66.86 60.928C66.572 60.6933 66.1827 60.576 65.692 60.576C65.212 60.576 64.844 60.6667 64.588 60.848C64.332 61.0293 64.204 61.2693 64.204 61.568C64.204 61.8027 64.2893 62 64.46 62.16C64.6307 62.32 64.8387 62.448 65.084 62.544C65.3293 62.6293 65.692 62.7413 66.172 62.88C66.812 63.0507 67.3347 63.2267 67.74 63.408C68.156 63.5787 68.5133 63.8347 68.812 64.176C69.1107 64.5173 69.2653 64.9707 69.276 65.536C69.276 66.0373 69.1373 66.4853 68.86 66.88C68.5827 67.2747 68.188 67.584 67.676 67.808C67.1747 68.032 66.5827 68.144 65.9 68.144Z" fill="white"/>
<defs>
<linearGradient id="paint0_linear_410_57" x1="37.8644" y1="0" x2="37.6262" y2="117.285" gradientUnits="userSpaceOnUse">
<stop stop-color="#D2FF3A"/>
<stop offset="1" stop-color="white" stop-opacity="0"/>
</linearGradient>
</defs>
</svg>
