<svg width="290" height="46" viewBox="0 0 290 46" fill="none" xmlns="http://www.w3.org/2000/svg">
<rect width="290" height="46" rx="12" fill="#D2FF3A"/>
<path d="M30.624 30H28.02L22.716 22.716L21.456 24.228V30H19.44V13.2H21.456V21.096L28.068 13.2H30.696L24.036 21.132L30.624 30ZM43.1964 22.536V30H41.1804V22.98C41.1804 22.372 41.0324 21.82 40.7364 21.324C40.4404 20.828 40.0444 20.436 39.5484 20.148C39.0524 19.852 38.5004 19.704 37.8924 19.704C37.2924 19.704 36.7404 19.852 36.2364 20.148C35.7404 20.436 35.3444 20.828 35.0484 21.324C34.7524 21.82 34.6044 22.372 34.6044 22.98V30H32.5884V18H34.6044V19.5C35.0284 18.94 35.5644 18.496 36.2124 18.168C36.8604 17.832 37.5644 17.664 38.3244 17.664C39.2204 17.664 40.0364 17.884 40.7724 18.324C41.5164 18.756 42.1044 19.34 42.5364 20.076C42.9764 20.812 43.1964 21.632 43.1964 22.536ZM50.6419 30.312C49.5379 30.312 48.5299 30.028 47.6179 29.46C46.7139 28.892 45.9899 28.132 45.4459 27.18C44.9099 26.22 44.6419 25.16 44.6419 24C44.6419 23.12 44.7979 22.3 45.1099 21.54C45.4219 20.772 45.8499 20.1 46.3939 19.524C46.9459 18.94 47.5859 18.484 48.3139 18.156C49.0419 17.828 49.8179 17.664 50.6419 17.664C51.7459 17.664 52.7499 17.948 53.6539 18.516C54.5659 19.084 55.2899 19.848 55.8259 20.808C56.3699 21.768 56.6419 22.832 56.6419 24C56.6419 24.872 56.4859 25.688 56.1739 26.448C55.8619 27.208 55.4299 27.88 54.8779 28.464C54.3339 29.04 53.6979 29.492 52.9699 29.82C52.2499 30.148 51.4739 30.312 50.6419 30.312ZM50.6419 28.296C51.3939 28.296 52.0699 28.1 52.6699 27.708C53.2779 27.308 53.7539 26.784 54.0979 26.136C54.4499 25.48 54.6259 24.768 54.6259 24C54.6259 23.216 54.4459 22.496 54.0859 21.84C53.7339 21.184 53.2579 20.66 52.6579 20.268C52.0579 19.876 51.3859 19.68 50.6419 19.68C49.8899 19.68 49.2139 19.88 48.6139 20.28C48.0139 20.672 47.5379 21.196 47.1859 21.852C46.8339 22.508 46.6579 23.224 46.6579 24C46.6579 24.8 46.8379 25.528 47.1979 26.184C47.5579 26.832 48.0419 27.348 48.6499 27.732C49.2579 28.108 49.9219 28.296 50.6419 28.296ZM63.4519 30H61.4119L57.3919 18H59.3599L62.4559 27.156L65.5159 18H67.5919L70.6639 27.156L73.7239 18H75.7159L71.6959 30H69.6439L66.5359 20.76L63.4519 30ZM83.6353 30V18H85.6513V19.5C86.0753 18.94 86.6073 18.496 87.2473 18.168C87.8953 17.832 88.5993 17.664 89.3593 17.664C90.2473 17.664 91.0593 17.88 91.7953 18.312C92.5313 18.744 93.1113 19.316 93.5353 20.028C93.9593 19.316 94.5353 18.744 95.2633 18.312C95.9993 17.88 96.8073 17.664 97.6873 17.664C98.5913 17.664 99.4113 17.884 100.147 18.324C100.883 18.756 101.467 19.34 101.899 20.076C102.339 20.812 102.559 21.632 102.559 22.536V30H100.543V23.016C100.543 22.424 100.399 21.876 100.111 21.372C99.8233 20.868 99.4353 20.464 98.9473 20.16C98.4593 19.856 97.9193 19.704 97.3273 19.704C96.7353 19.704 96.1953 19.848 95.7073 20.136C95.2193 20.416 94.8313 20.808 94.5433 21.312C94.2553 21.808 94.1113 22.376 94.1113 23.016V30H92.0953V23.016C92.0953 22.376 91.9513 21.808 91.6633 21.312C91.3753 20.808 90.9833 20.416 90.4873 20.136C89.9993 19.848 89.4593 19.704 88.8673 19.704C88.2833 19.704 87.7433 19.856 87.2473 20.16C86.7593 20.464 86.3713 20.868 86.0833 21.372C85.7953 21.876 85.6513 22.424 85.6513 23.016V30H83.6353ZM110.009 30.312C108.905 30.312 107.897 30.028 106.985 29.46C106.081 28.892 105.357 28.132 104.813 27.18C104.277 26.22 104.009 25.16 104.009 24C104.009 23.12 104.165 22.3 104.477 21.54C104.789 20.772 105.217 20.1 105.761 19.524C106.313 18.94 106.953 18.484 107.681 18.156C108.409 17.828 109.185 17.664 110.009 17.664C111.113 17.664 112.117 17.948 113.021 18.516C113.933 19.084 114.657 19.848 115.193 20.808C115.737 21.768 116.009 22.832 116.009 24C116.009 24.872 115.853 25.688 115.541 26.448C115.229 27.208 114.797 27.88 114.245 28.464C113.701 29.04 113.065 29.492 112.337 29.82C111.617 30.148 110.841 30.312 110.009 30.312ZM110.009 28.296C110.761 28.296 111.437 28.1 112.037 27.708C112.645 27.308 113.121 26.784 113.465 26.136C113.817 25.48 113.993 24.768 113.993 24C113.993 23.216 113.813 22.496 113.453 21.84C113.101 21.184 112.625 20.66 112.025 20.268C111.425 19.876 110.753 19.68 110.009 19.68C109.257 19.68 108.581 19.88 107.981 20.28C107.381 20.672 106.905 21.196 106.553 21.852C106.201 22.508 106.025 23.224 106.025 24C106.025 24.8 106.205 25.528 106.565 26.184C106.925 26.832 107.409 27.348 108.017 27.732C108.625 28.108 109.289 28.296 110.009 28.296ZM117.995 30V18H120.011V19.5C120.435 18.94 120.971 18.496 121.619 18.168C122.267 17.832 122.971 17.664 123.731 17.664C124.195 17.664 124.643 17.724 125.075 17.844L124.259 19.86C123.931 19.756 123.611 19.704 123.299 19.704C122.699 19.704 122.147 19.852 121.643 20.148C121.147 20.436 120.751 20.828 120.455 21.324C120.159 21.82 120.011 22.372 120.011 22.98V30H117.995ZM131.22 30.312C130.116 30.312 129.108 30.028 128.196 29.46C127.292 28.892 126.568 28.132 126.024 27.18C125.488 26.22 125.22 25.16 125.22 24C125.22 23.12 125.376 22.3 125.688 21.54C126 20.772 126.428 20.1 126.972 19.524C127.524 18.94 128.164 18.484 128.892 18.156C129.62 17.828 130.396 17.664 131.22 17.664C132.124 17.664 132.952 17.848 133.704 18.216C134.464 18.576 135.112 19.08 135.648 19.728C136.192 20.376 136.596 21.128 136.86 21.984C137.132 22.84 137.232 23.756 137.16 24.732H127.368C127.464 25.412 127.688 26.02 128.04 26.556C128.392 27.084 128.84 27.504 129.384 27.816C129.936 28.128 130.548 28.288 131.22 28.296C131.94 28.296 132.592 28.112 133.176 27.744C133.76 27.368 134.232 26.856 134.592 26.208L136.644 26.688C136.164 27.752 135.44 28.624 134.472 29.304C133.504 29.976 132.42 30.312 131.22 30.312ZM127.308 23.148H135.132C135.068 22.476 134.852 21.864 134.484 21.312C134.116 20.752 133.648 20.304 133.08 19.968C132.512 19.632 131.892 19.464 131.22 19.464C130.548 19.464 129.932 19.628 129.372 19.956C128.812 20.284 128.348 20.728 127.98 21.288C127.62 21.84 127.396 22.46 127.308 23.148ZM154.76 18H156.776V30H154.76L154.676 27.972C154.3 28.668 153.78 29.232 153.116 29.664C152.46 30.096 151.676 30.312 150.764 30.312C149.884 30.312 149.06 30.148 148.292 29.82C147.524 29.484 146.844 29.024 146.252 28.44C145.668 27.848 145.212 27.168 144.884 26.4C144.556 25.632 144.392 24.804 144.392 23.916C144.392 23.06 144.552 22.252 144.872 21.492C145.192 20.732 145.636 20.068 146.204 19.5C146.78 18.924 147.444 18.476 148.196 18.156C148.948 17.828 149.756 17.664 150.62 17.664C151.564 17.664 152.392 17.888 153.104 18.336C153.816 18.776 154.392 19.348 154.832 20.052L154.76 18ZM150.728 28.356C151.52 28.356 152.204 28.164 152.78 27.78C153.364 27.388 153.812 26.86 154.124 26.196C154.444 25.532 154.604 24.8 154.604 24C154.604 23.184 154.444 22.448 154.124 21.792C153.804 21.128 153.352 20.604 152.768 20.22C152.192 19.828 151.512 19.632 150.728 19.632C149.936 19.632 149.216 19.828 148.568 20.22C147.92 20.612 147.404 21.14 147.02 21.804C146.644 22.46 146.456 23.192 146.456 24C146.456 24.808 146.652 25.544 147.044 26.208C147.436 26.864 147.956 27.388 148.604 27.78C149.252 28.164 149.96 28.356 150.728 28.356ZM165.387 17.664C166.555 17.664 167.615 17.948 168.567 18.516C169.527 19.084 170.291 19.848 170.859 20.808C171.427 21.76 171.711 22.82 171.711 23.988C171.711 24.86 171.547 25.68 171.219 26.448C170.891 27.208 170.435 27.88 169.851 28.464C169.275 29.04 168.603 29.492 167.835 29.82C167.075 30.148 166.259 30.312 165.387 30.312C164.459 30.312 163.651 30.096 162.963 29.664C162.283 29.224 161.739 28.652 161.331 27.948V30H159.315V12H161.331V20.028C161.739 19.324 162.283 18.756 162.963 18.324C163.651 17.884 164.459 17.664 165.387 17.664ZM165.363 28.344C166.155 28.344 166.875 28.148 167.523 27.756C168.171 27.364 168.687 26.84 169.071 26.184C169.455 25.52 169.647 24.788 169.647 23.988C169.647 23.172 169.451 22.436 169.059 21.78C168.667 21.116 168.147 20.592 167.499 20.208C166.851 19.816 166.139 19.62 165.363 19.62C164.579 19.62 163.895 19.816 163.311 20.208C162.735 20.6 162.287 21.128 161.967 21.792C161.655 22.456 161.499 23.188 161.499 23.988C161.499 24.796 161.655 25.532 161.967 26.196C162.287 26.852 162.739 27.376 163.323 27.768C163.907 28.152 164.587 28.344 165.363 28.344ZM178.915 30.312C177.811 30.312 176.803 30.028 175.891 29.46C174.987 28.892 174.263 28.132 173.719 27.18C173.183 26.22 172.915 25.16 172.915 24C172.915 23.12 173.071 22.3 173.383 21.54C173.695 20.772 174.123 20.1 174.667 19.524C175.219 18.94 175.859 18.484 176.587 18.156C177.315 17.828 178.091 17.664 178.915 17.664C180.019 17.664 181.023 17.948 181.927 18.516C182.839 19.084 183.563 19.848 184.099 20.808C184.643 21.768 184.915 22.832 184.915 24C184.915 24.872 184.759 25.688 184.447 26.448C184.135 27.208 183.703 27.88 183.151 28.464C182.607 29.04 181.971 29.492 181.243 29.82C180.523 30.148 179.747 30.312 178.915 30.312ZM178.915 28.296C179.667 28.296 180.343 28.1 180.943 27.708C181.551 27.308 182.027 26.784 182.371 26.136C182.723 25.48 182.899 24.768 182.899 24C182.899 23.216 182.719 22.496 182.359 21.84C182.007 21.184 181.531 20.66 180.931 20.268C180.331 19.876 179.659 19.68 178.915 19.68C178.163 19.68 177.487 19.88 176.887 20.28C176.287 20.672 175.811 21.196 175.459 21.852C175.107 22.508 174.931 23.224 174.931 24C174.931 24.8 175.111 25.528 175.471 26.184C175.831 26.832 176.315 27.348 176.923 27.732C177.531 28.108 178.195 28.296 178.915 28.296ZM186.257 25.44V18H188.273V24.996C188.273 25.604 188.421 26.156 188.717 26.652C189.013 27.148 189.409 27.544 189.905 27.84C190.409 28.128 190.961 28.272 191.561 28.272C192.169 28.272 192.717 28.128 193.205 27.84C193.701 27.544 194.097 27.148 194.393 26.652C194.689 26.156 194.837 25.604 194.837 24.996V18H196.853L196.865 30H194.849L194.837 28.476C194.413 29.036 193.877 29.484 193.229 29.82C192.581 30.148 191.881 30.312 191.129 30.312C190.233 30.312 189.413 30.096 188.669 29.664C187.933 29.224 187.345 28.636 186.905 27.9C186.473 27.164 186.257 26.344 186.257 25.44ZM205.492 20.016H202.768L202.756 30H200.74L200.752 20.016H198.688V18H200.752L200.74 14.232H202.756L202.768 18H205.492V20.016ZM212.929 25.44V18H214.945V24.996C214.945 25.604 215.093 26.156 215.389 26.652C215.685 27.148 216.081 27.544 216.577 27.84C217.081 28.128 217.633 28.272 218.233 28.272C218.841 28.272 219.389 28.128 219.877 27.84C220.373 27.544 220.769 27.148 221.065 26.652C221.361 26.156 221.509 25.604 221.509 24.996V18H223.525L223.537 30H221.521L221.509 28.476C221.085 29.036 220.549 29.484 219.901 29.82C219.253 30.148 218.553 30.312 217.801 30.312C216.905 30.312 216.085 30.096 215.341 29.664C214.605 29.224 214.017 28.636 213.577 27.9C213.145 27.164 212.929 26.344 212.929 25.44ZM229.608 30.228C228.96 30.204 228.328 30.084 227.712 29.868C227.104 29.644 226.568 29.344 226.104 28.968C225.648 28.584 225.316 28.144 225.108 27.648L226.836 26.904C226.956 27.176 227.172 27.432 227.484 27.672C227.796 27.912 228.156 28.104 228.564 28.248C228.972 28.392 229.384 28.464 229.8 28.464C230.24 28.464 230.652 28.396 231.036 28.26C231.42 28.124 231.732 27.924 231.972 27.66C232.22 27.388 232.344 27.064 232.344 26.688C232.344 26.288 232.208 25.976 231.936 25.752C231.672 25.52 231.336 25.34 230.928 25.212C230.528 25.076 230.12 24.948 229.704 24.828C228.88 24.62 228.144 24.372 227.496 24.084C226.848 23.788 226.336 23.416 225.96 22.968C225.592 22.512 225.408 21.932 225.408 21.228C225.408 20.484 225.612 19.84 226.02 19.296C226.436 18.752 226.98 18.332 227.652 18.036C228.324 17.74 229.044 17.592 229.812 17.592C230.78 17.592 231.664 17.8 232.464 18.216C233.264 18.632 233.86 19.196 234.252 19.908L232.632 20.856C232.496 20.568 232.288 20.316 232.008 20.1C231.728 19.876 231.408 19.7 231.048 19.572C230.688 19.444 230.32 19.376 229.944 19.368C229.48 19.352 229.044 19.412 228.636 19.548C228.236 19.684 227.912 19.892 227.664 20.172C227.424 20.444 227.304 20.784 227.304 21.192C227.304 21.592 227.432 21.896 227.688 22.104C227.952 22.312 228.292 22.48 228.708 22.608C229.132 22.728 229.592 22.868 230.088 23.028C230.816 23.26 231.496 23.528 232.128 23.832C232.76 24.136 233.268 24.516 233.652 24.972C234.044 25.428 234.236 25.992 234.228 26.664C234.228 27.4 234.008 28.044 233.568 28.596C233.128 29.14 232.556 29.556 231.852 29.844C231.156 30.132 230.408 30.26 229.608 30.228Z" fill="black"/>
<path d="M259.287 13.4661C259.121 12.9393 258.559 12.6469 258.033 12.8128L249.449 15.5174C248.922 15.6834 248.629 16.2449 248.795 16.7717C248.961 17.2985 249.523 17.5909 250.05 17.425L257.68 15.0209L260.084 22.6511C260.25 23.1779 260.812 23.4704 261.338 23.3044C261.865 23.1384 262.158 22.5769 261.992 22.0501L259.287 13.4661ZM250.887 30.2285L259.22 14.2285L257.446 13.3047L249.113 29.3047L250.887 30.2285Z" fill="black"/>
</svg>
