<svg width="194" height="46" viewBox="0 0 194 46" fill="none" xmlns="http://www.w3.org/2000/svg">
<rect width="194" height="46" rx="12" fill="#D2FF3A"/>
<path d="M25.89 27H24.2625L20.9475 22.4475L20.16 23.3925V27H18.9V16.5H20.16V21.435L24.2925 16.5H25.935L21.7725 21.4575L25.89 27ZM33.7478 22.335V27H32.4878V22.6125C32.4878 22.2325 32.3953 21.8875 32.2103 21.5775C32.0253 21.2675 31.7778 21.0225 31.4678 20.8425C31.1578 20.6575 30.8128 20.565 30.4328 20.565C30.0578 20.565 29.7128 20.6575 29.3978 20.8425C29.0878 21.0225 28.8403 21.2675 28.6553 21.5775C28.4703 21.8875 28.3778 22.2325 28.3778 22.6125V27H27.1178V19.5H28.3778V20.4375C28.6428 20.0875 28.9778 19.81 29.3828 19.605C29.7878 19.395 30.2278 19.29 30.7028 19.29C31.2628 19.29 31.7728 19.4275 32.2328 19.7025C32.6978 19.9725 33.0653 20.3375 33.3353 20.7975C33.6103 21.2575 33.7478 21.77 33.7478 22.335ZM38.4012 27.195C37.7112 27.195 37.0812 27.0175 36.5112 26.6625C35.9462 26.3075 35.4937 25.8325 35.1537 25.2375C34.8187 24.6375 34.6512 23.975 34.6512 23.25C34.6512 22.7 34.7487 22.1875 34.9437 21.7125C35.1387 21.2325 35.4062 20.8125 35.7462 20.4525C36.0912 20.0875 36.4912 19.8025 36.9462 19.5975C37.4012 19.3925 37.8862 19.29 38.4012 19.29C39.0912 19.29 39.7187 19.4675 40.2837 19.8225C40.8537 20.1775 41.3062 20.655 41.6412 21.255C41.9812 21.855 42.1512 22.52 42.1512 23.25C42.1512 23.795 42.0537 24.305 41.8587 24.78C41.6637 25.255 41.3937 25.675 41.0487 26.04C40.7087 26.4 40.3112 26.6825 39.8562 26.8875C39.4062 27.0925 38.9212 27.195 38.4012 27.195ZM38.4012 25.935C38.8712 25.935 39.2937 25.8125 39.6687 25.5675C40.0487 25.3175 40.3462 24.99 40.5612 24.585C40.7812 24.175 40.8912 23.73 40.8912 23.25C40.8912 22.76 40.7787 22.31 40.5537 21.9C40.3337 21.49 40.0362 21.1625 39.6612 20.9175C39.2862 20.6725 38.8662 20.55 38.4012 20.55C37.9312 20.55 37.5087 20.675 37.1337 20.925C36.7587 21.17 36.4612 21.4975 36.2412 21.9075C36.0212 22.3175 35.9112 22.765 35.9112 23.25C35.9112 23.75 36.0237 24.205 36.2487 24.615C36.4737 25.02 36.7762 25.3425 37.1562 25.5825C37.5362 25.8175 37.9512 25.935 38.4012 25.935ZM46.4074 27H45.1324L42.6199 19.5H43.8499L45.7849 25.2225L47.6974 19.5H48.9949L50.9149 25.2225L52.8274 19.5H54.0724L51.5599 27H50.2774L48.3349 21.225L46.4074 27ZM59.0221 27V19.5H60.2821V20.4375C60.5471 20.0875 60.8796 19.81 61.2796 19.605C61.6846 19.395 62.1246 19.29 62.5996 19.29C63.1546 19.29 63.6621 19.425 64.1221 19.695C64.5821 19.965 64.9446 20.3225 65.2096 20.7675C65.4746 20.3225 65.8346 19.965 66.2896 19.695C66.7496 19.425 67.2546 19.29 67.8046 19.29C68.3696 19.29 68.8821 19.4275 69.3421 19.7025C69.8021 19.9725 70.1671 20.3375 70.4371 20.7975C70.7121 21.2575 70.8496 21.77 70.8496 22.335V27H69.5896V22.635C69.5896 22.265 69.4996 21.9225 69.3196 21.6075C69.1396 21.2925 68.8971 21.04 68.5921 20.85C68.2871 20.66 67.9496 20.565 67.5796 20.565C67.2096 20.565 66.8721 20.655 66.5671 20.835C66.2621 21.01 66.0196 21.255 65.8396 21.57C65.6596 21.88 65.5696 22.235 65.5696 22.635V27H64.3096V22.635C64.3096 22.235 64.2196 21.88 64.0396 21.57C63.8596 21.255 63.6146 21.01 63.3046 20.835C62.9996 20.655 62.6621 20.565 62.2921 20.565C61.9271 20.565 61.5896 20.66 61.2796 20.85C60.9746 21.04 60.7321 21.2925 60.5521 21.6075C60.3721 21.9225 60.2821 22.265 60.2821 22.635V27H59.0221ZM75.5057 27.195C74.8157 27.195 74.1857 27.0175 73.6157 26.6625C73.0507 26.3075 72.5982 25.8325 72.2582 25.2375C71.9232 24.6375 71.7557 23.975 71.7557 23.25C71.7557 22.7 71.8532 22.1875 72.0482 21.7125C72.2432 21.2325 72.5107 20.8125 72.8507 20.4525C73.1957 20.0875 73.5957 19.8025 74.0507 19.5975C74.5057 19.3925 74.9907 19.29 75.5057 19.29C76.1957 19.29 76.8232 19.4675 77.3882 19.8225C77.9582 20.1775 78.4107 20.655 78.7457 21.255C79.0857 21.855 79.2557 22.52 79.2557 23.25C79.2557 23.795 79.1582 24.305 78.9632 24.78C78.7682 25.255 78.4982 25.675 78.1532 26.04C77.8132 26.4 77.4157 26.6825 76.9607 26.8875C76.5107 27.0925 76.0257 27.195 75.5057 27.195ZM75.5057 25.935C75.9757 25.935 76.3982 25.8125 76.7732 25.5675C77.1532 25.3175 77.4507 24.99 77.6657 24.585C77.8857 24.175 77.9957 23.73 77.9957 23.25C77.9957 22.76 77.8832 22.31 77.6582 21.9C77.4382 21.49 77.1407 21.1625 76.7657 20.9175C76.3907 20.6725 75.9707 20.55 75.5057 20.55C75.0357 20.55 74.6132 20.675 74.2382 20.925C73.8632 21.17 73.5657 21.4975 73.3457 21.9075C73.1257 22.3175 73.0157 22.765 73.0157 23.25C73.0157 23.75 73.1282 24.205 73.3532 24.615C73.5782 25.02 73.8807 25.3425 74.2607 25.5825C74.6407 25.8175 75.0557 25.935 75.5057 25.935ZM80.4967 27V19.5H81.7567V20.4375C82.0217 20.0875 82.3567 19.81 82.7617 19.605C83.1667 19.395 83.6067 19.29 84.0817 19.29C84.3717 19.29 84.6517 19.3275 84.9217 19.4025L84.4117 20.6625C84.2067 20.5975 84.0067 20.565 83.8117 20.565C83.4367 20.565 83.0917 20.6575 82.7767 20.8425C82.4667 21.0225 82.2192 21.2675 82.0342 21.5775C81.8492 21.8875 81.7567 22.2325 81.7567 22.6125V27H80.4967ZM88.7625 27.195C88.0725 27.195 87.4425 27.0175 86.8725 26.6625C86.3075 26.3075 85.855 25.8325 85.515 25.2375C85.18 24.6375 85.0125 23.975 85.0125 23.25C85.0125 22.7 85.11 22.1875 85.305 21.7125C85.5 21.2325 85.7675 20.8125 86.1075 20.4525C86.4525 20.0875 86.8525 19.8025 87.3075 19.5975C87.7625 19.3925 88.2475 19.29 88.7625 19.29C89.3275 19.29 89.845 19.405 90.315 19.635C90.79 19.86 91.195 20.175 91.53 20.58C91.87 20.985 92.1225 21.455 92.2875 21.99C92.4575 22.525 92.52 23.0975 92.475 23.7075H86.355C86.415 24.1325 86.555 24.5125 86.775 24.8475C86.995 25.1775 87.275 25.44 87.615 25.635C87.96 25.83 88.3425 25.93 88.7625 25.935C89.2125 25.935 89.62 25.82 89.985 25.59C90.35 25.355 90.645 25.035 90.87 24.63L92.1525 24.93C91.8525 25.595 91.4 26.14 90.795 26.565C90.19 26.985 89.5125 27.195 88.7625 27.195ZM86.3175 22.7175H91.2075C91.1675 22.2975 91.0325 21.915 90.8025 21.57C90.5725 21.22 90.28 20.94 89.925 20.73C89.57 20.52 89.1825 20.415 88.7625 20.415C88.3425 20.415 87.9575 20.5175 87.6075 20.7225C87.2575 20.9275 86.9675 21.205 86.7375 21.555C86.5125 21.9 86.3725 22.2875 86.3175 22.7175ZM103.475 19.5H104.735V27H103.475L103.422 25.7325C103.187 26.1675 102.862 26.52 102.447 26.79C102.037 27.06 101.547 27.195 100.977 27.195C100.427 27.195 99.9124 27.0925 99.4324 26.8875C98.9524 26.6775 98.5274 26.39 98.1574 26.025C97.7924 25.655 97.5074 25.23 97.3024 24.75C97.0974 24.27 96.9949 23.7525 96.9949 23.1975C96.9949 22.6625 97.0949 22.1575 97.2949 21.6825C97.4949 21.2075 97.7724 20.7925 98.1274 20.4375C98.4874 20.0775 98.9024 19.7975 99.3724 19.5975C99.8424 19.3925 100.347 19.29 100.887 19.29C101.477 19.29 101.995 19.43 102.44 19.71C102.885 19.985 103.245 20.3425 103.52 20.7825L103.475 19.5ZM100.955 25.9725C101.45 25.9725 101.877 25.8525 102.237 25.6125C102.602 25.3675 102.882 25.0375 103.077 24.6225C103.277 24.2075 103.377 23.75 103.377 23.25C103.377 22.74 103.277 22.28 103.077 21.87C102.877 21.455 102.595 21.1275 102.23 20.8875C101.87 20.6425 101.445 20.52 100.955 20.52C100.46 20.52 100.01 20.6425 99.6049 20.8875C99.1999 21.1325 98.8774 21.4625 98.6374 21.8775C98.4024 22.2875 98.2849 22.745 98.2849 23.25C98.2849 23.755 98.4074 24.215 98.6524 24.63C98.8974 25.04 99.2224 25.3675 99.6274 25.6125C100.032 25.8525 100.475 25.9725 100.955 25.9725ZM110.117 19.29C110.847 19.29 111.509 19.4675 112.104 19.8225C112.704 20.1775 113.182 20.655 113.537 21.255C113.892 21.85 114.069 22.5125 114.069 23.2425C114.069 23.7875 113.967 24.3 113.762 24.78C113.557 25.255 113.272 25.675 112.907 26.04C112.547 26.4 112.127 26.6825 111.647 26.8875C111.172 27.0925 110.662 27.195 110.117 27.195C109.537 27.195 109.032 27.06 108.602 26.79C108.177 26.515 107.837 26.1575 107.582 25.7175V27H106.322V15.75H107.582V20.7675C107.837 20.3275 108.177 19.9725 108.602 19.7025C109.032 19.4275 109.537 19.29 110.117 19.29ZM110.102 25.965C110.597 25.965 111.047 25.8425 111.452 25.5975C111.857 25.3525 112.179 25.025 112.419 24.615C112.659 24.2 112.779 23.7425 112.779 23.2425C112.779 22.7325 112.657 22.2725 112.412 21.8625C112.167 21.4475 111.842 21.12 111.437 20.88C111.032 20.635 110.587 20.5125 110.102 20.5125C109.612 20.5125 109.184 20.635 108.819 20.88C108.459 21.125 108.179 21.455 107.979 21.87C107.784 22.285 107.687 22.7425 107.687 23.2425C107.687 23.7475 107.784 24.2075 107.979 24.6225C108.179 25.0325 108.462 25.36 108.827 25.605C109.192 25.845 109.617 25.965 110.102 25.965ZM118.572 27.195C117.882 27.195 117.252 27.0175 116.682 26.6625C116.117 26.3075 115.665 25.8325 115.325 25.2375C114.99 24.6375 114.822 23.975 114.822 23.25C114.822 22.7 114.92 22.1875 115.115 21.7125C115.31 21.2325 115.577 20.8125 115.917 20.4525C116.262 20.0875 116.662 19.8025 117.117 19.5975C117.572 19.3925 118.057 19.29 118.572 19.29C119.262 19.29 119.89 19.4675 120.455 19.8225C121.025 20.1775 121.477 20.655 121.812 21.255C122.152 21.855 122.322 22.52 122.322 23.25C122.322 23.795 122.225 24.305 122.03 24.78C121.835 25.255 121.565 25.675 121.22 26.04C120.88 26.4 120.482 26.6825 120.027 26.8875C119.577 27.0925 119.092 27.195 118.572 27.195ZM118.572 25.935C119.042 25.935 119.465 25.8125 119.84 25.5675C120.22 25.3175 120.517 24.99 120.732 24.585C120.952 24.175 121.062 23.73 121.062 23.25C121.062 22.76 120.95 22.31 120.725 21.9C120.505 21.49 120.207 21.1625 119.832 20.9175C119.457 20.6725 119.037 20.55 118.572 20.55C118.102 20.55 117.68 20.675 117.305 20.925C116.93 21.17 116.632 21.4975 116.412 21.9075C116.192 22.3175 116.082 22.765 116.082 23.25C116.082 23.75 116.195 24.205 116.42 24.615C116.645 25.02 116.947 25.3425 117.327 25.5825C117.707 25.8175 118.122 25.935 118.572 25.935ZM123.161 24.15V19.5H124.421V23.8725C124.421 24.2525 124.513 24.5975 124.698 24.9075C124.883 25.2175 125.131 25.465 125.441 25.65C125.756 25.83 126.101 25.92 126.476 25.92C126.856 25.92 127.198 25.83 127.503 25.65C127.813 25.465 128.061 25.2175 128.246 24.9075C128.431 24.5975 128.523 24.2525 128.523 23.8725V19.5H129.783L129.791 27H128.531L128.523 26.0475C128.258 26.3975 127.923 26.6775 127.518 26.8875C127.113 27.0925 126.676 27.195 126.206 27.195C125.646 27.195 125.133 27.06 124.668 26.79C124.208 26.515 123.841 26.1475 123.566 25.6875C123.296 25.2275 123.161 24.715 123.161 24.15ZM135.182 20.76H133.48L133.472 27H132.212L132.22 20.76H130.93V19.5H132.22L132.212 17.145H133.472L133.48 19.5H135.182V20.76ZM139.83 24.15V19.5H141.09V23.8725C141.09 24.2525 141.183 24.5975 141.368 24.9075C141.553 25.2175 141.8 25.465 142.11 25.65C142.425 25.83 142.77 25.92 143.145 25.92C143.525 25.92 143.868 25.83 144.173 25.65C144.483 25.465 144.73 25.2175 144.915 24.9075C145.1 24.5975 145.193 24.2525 145.193 23.8725V19.5H146.453L146.46 27H145.2L145.193 26.0475C144.928 26.3975 144.593 26.6775 144.188 26.8875C143.783 27.0925 143.345 27.195 142.875 27.195C142.315 27.195 141.803 27.06 141.338 26.79C140.878 26.515 140.51 26.1475 140.235 25.6875C139.965 25.2275 139.83 24.715 139.83 24.15ZM150.255 27.1425C149.85 27.1275 149.455 27.0525 149.07 26.9175C148.69 26.7775 148.355 26.59 148.065 26.355C147.78 26.115 147.572 25.84 147.442 25.53L148.522 25.065C148.597 25.235 148.732 25.395 148.927 25.545C149.122 25.695 149.347 25.815 149.602 25.905C149.857 25.995 150.115 26.04 150.375 26.04C150.65 26.04 150.907 25.9975 151.147 25.9125C151.387 25.8275 151.582 25.7025 151.732 25.5375C151.887 25.3675 151.965 25.165 151.965 24.93C151.965 24.68 151.88 24.485 151.71 24.345C151.545 24.2 151.335 24.0875 151.08 24.0075C150.83 23.9225 150.575 23.8425 150.315 23.7675C149.8 23.6375 149.34 23.4825 148.935 23.3025C148.53 23.1175 148.21 22.885 147.975 22.605C147.745 22.32 147.63 21.9575 147.63 21.5175C147.63 21.0525 147.757 20.65 148.012 20.31C148.272 19.97 148.612 19.7075 149.032 19.5225C149.452 19.3375 149.902 19.245 150.382 19.245C150.987 19.245 151.54 19.375 152.04 19.635C152.54 19.895 152.912 20.2475 153.157 20.6925L152.145 21.285C152.06 21.105 151.93 20.9475 151.755 20.8125C151.58 20.6725 151.38 20.5625 151.155 20.4825C150.93 20.4025 150.7 20.36 150.465 20.355C150.175 20.345 149.902 20.3825 149.647 20.4675C149.397 20.5525 149.195 20.6825 149.04 20.8575C148.89 21.0275 148.815 21.24 148.815 21.495C148.815 21.745 148.895 21.935 149.055 22.065C149.22 22.195 149.432 22.3 149.692 22.38C149.957 22.455 150.245 22.5425 150.555 22.6425C151.01 22.7875 151.435 22.955 151.83 23.145C152.225 23.335 152.542 23.5725 152.782 23.8575C153.027 24.1425 153.147 24.495 153.142 24.915C153.142 25.375 153.005 25.7775 152.73 26.1225C152.455 26.4625 152.097 26.7225 151.657 26.9025C151.222 27.0825 150.755 27.1625 150.255 27.1425Z" fill="black"/>
<path d="M170.976 15.7831C170.856 15.2439 170.322 14.904 169.783 15.0238L160.997 16.9762C160.458 17.096 160.118 17.6302 160.238 18.1693C160.358 18.7084 160.892 19.0484 161.431 18.9286L169.241 17.1931L170.976 25.0026C171.096 25.5417 171.63 25.8817 172.169 25.7619C172.708 25.6421 173.048 25.1079 172.929 24.5688L170.976 15.7831ZM163.844 27.5369L170.844 16.5369L169.156 15.4631L162.156 26.4631L163.844 27.5369Z" fill="black"/>
</svg>
